<svg xmlns="http://www.w3.org/2000/svg" data-name="Layer 1" viewBox="0 0 64 80" x="0px" y="0px"><path d="M61.00018,30.25012l-18.50024.00006c.02652,1.94036-1.85212,2.62347-3.4997,2.67v16.33a1.00005,1.00005,0,0,0,1,1l21-.00006a1,1,0,0,0,1-1l-.00006-18A1,1,0,0,0,61.00018,30.25012ZM54.00024,39h-7V31.99994h7Z"/><path d="M41.47241,29.96161A1.49726,1.49726,0,0,0,39.71167,28.778,16.46807,16.46807,0,0,1,28.9978,27.27875a2.99826,2.99826,0,0,0-.20831-1.12415c4.46794,2.21236,10.02927-1.88971,9.13955-6.85694A6.5001,6.5001,0,1,0,26.31079,24.166a12.8573,12.8573,0,0,0-8.5708.07886c-5.95806,2.24537-8.71861,8.80925-7.7135,10.73944.72342,4.66235-.73239,9.62309-6.54491,11.33383A2,2,0,0,0,4.5188,50.18133a13.08826,13.08826,0,0,0,9.67877-12.76568,5.17744,5.17744,0,0,1,2.96283,2.61822c.93457,2.19141-.042,4.96192-2.32178,6.5879a1.99988,1.99988,0,1,0,2.32324,3.25585C23.48847,45.387,22.65145,36.39181,15.96124,33.816a6.64891,6.64891,0,0,1,8.875-3.80148,2.98291,2.98291,0,0,0,2.61962-.156,19.452,19.452,0,0,0,9.04291,2.233C38.07772,31.90735,41.76049,32.42156,41.47241,29.96161Z"/><path d="M54.22852,20.74969H43.00024a1.5,1.5,0,0,0,0,3H54.22852v2.12207a.5.5,0,0,0,.75.433l6.27184-3.62163a.5.5,0,0,0,0-.866l-6.27185-3.62159a.5.5,0,0,0-.75.433Z"/><text x="0" y="79" fill="#000000" font-size="5px" font-weight="bold" font-family="'Helvetica Neue', Helvetica, Arial-Unicode, Arial, Sans-serif">Created by LUTFI GANI AL ACHMAD</text><text x="0" y="84" fill="#000000" font-size="5px" font-weight="bold" font-family="'Helvetica Neue', Helvetica, Arial-Unicode, Arial, Sans-serif">from the Noun Project</text></svg>